<?xml version="1.0" encoding="UTF-8" standalone="no"?>
<svg
   version="1.1"
   id="Layer_1"
   x="0px"
   y="0px"
   width="100%"
   viewBox="0 0 91 86"
   enable-background="new 0 0 91 86"
   xml:space="preserve"
   sodipodi:docname="icon.svg"
   inkscape:version="1.3 (0e150ed6c4, 2023-07-21)"
   xmlns:inkscape="http://www.inkscape.org/namespaces/inkscape"
   xmlns:sodipodi="http://sodipodi.sourceforge.net/DTD/sodipodi-0.dtd"
   xmlns="http://www.w3.org/2000/svg"
   xmlns:svg="http://www.w3.org/2000/svg"><defs
   id="defs3" /><sodipodi:namedview
   id="namedview3"
   pagecolor="#ffffff"
   bordercolor="#000000"
   borderopacity="0.25"
   inkscape:showpageshadow="2"
   inkscape:pageopacity="0.0"
   inkscape:pagecheckerboard="0"
   inkscape:deskcolor="#d1d1d1"
   inkscape:zoom="3.4098837"
   inkscape:cx="87.97954"
   inkscape:cy="68.184143"
   inkscape:window-width="2560"
   inkscape:window-height="1369"
   inkscape:window-x="-8"
   inkscape:window-y="-8"
   inkscape:window-maximized="1"
   inkscape:current-layer="Layer_1" />&#10;&#10;<path
   fill="#131313"
   opacity="1.000000"
   stroke="none"
   d=" M56.093193,76.309814   C64.697655,75.706467 69.754623,70.437141 70.574326,61.697670   C71.258995,54.397934 66.693756,48.200016 59.180977,46.339851   C57.409508,45.901230 55.475929,45.959480 53.811722,45.298615   C52.616211,44.823875 51.030384,43.608295 50.923157,42.586330   C50.808723,41.495705 52.103954,40.133076 53.026569,39.107613   C53.523090,38.555744 54.515865,38.423183 55.305984,38.166977   C61.324287,36.215523 64.864296,32.275909 65.049461,25.787855   C65.207870,20.236927 61.664909,15.407446 55.752213,12.845874   C45.077850,8.221394 30.755081,13.727884 27.130398,23.741032   C25.398724,28.524767 26.586010,32.781387 28.452433,37.238251   C29.180471,38.976753 28.367142,41.360744 28.255877,43.450726   C26.162973,42.645767 23.293930,42.450317 22.104565,40.935802   C14.994319,31.881735 18.503630,16.004269 29.047922,9.360718   C36.995220,4.353433 45.827850,2.872432 54.977150,4.956874   C63.657272,6.934423 70.255859,11.762058 72.417542,20.878513   C74.463615,29.507416 71.019058,36.104763 63.232677,40.954655   C66.121109,42.491085 68.749580,43.459785 70.866768,45.091778   C78.880516,51.269024 80.835503,62.597122 75.770027,72.147331   C70.899361,81.330276 60.325726,85.528519 50.124264,82.316544   C49.331764,82.067032 48.519550,81.809746 47.801620,81.405060   C42.714069,78.537254 38.293613,77.046646 32.657925,81.655212   C30.026770,83.806831 24.334362,83.112648 20.271648,82.374825   C15.807679,81.564140 13.278359,76.329208 14.237827,72.239487   C15.359849,67.456871 20.135592,64.165573 25.753012,64.782578   C28.824387,65.119934 31.813923,66.202370 35.794704,67.184189   C36.675232,62.690372 38.101543,58.246799 38.308727,53.747086   C38.706219,45.114265 38.403111,36.449581 38.412186,27.798138   C38.413921,26.146029 38.204269,24.397758 38.676178,22.874828   C39.006763,21.807974 40.318459,20.341274 41.213333,20.326271   C42.407776,20.306244 44.153641,21.235355 44.708908,22.269115   C45.617210,23.960138 46.019714,26.042982 46.177891,27.997585   C47.338139,42.334698 47.429390,56.604900 42.333645,71.565414   C46.832882,73.155334 51.249847,74.716179 56.093193,76.309814  M27.834539,76.409111   C29.006090,75.678864 30.177641,74.948616 31.349192,74.218369   C31.310562,73.675812 31.271935,73.133263 31.233305,72.590706   C28.698586,72.278564 26.164751,71.779602 23.628614,71.767609   C22.863348,71.763985 21.347069,73.309608 21.477203,73.799820   C21.752249,74.835907 22.727535,75.966797 23.713993,76.451538   C24.633410,76.903336 25.939428,76.568398 27.834539,76.409111  z"
   id="path2" />&#10;<path
   fill="#D1D1D1"
   opacity="1.000000"
   stroke="none"
   d=" M27.454903,76.494446   C25.939428,76.568398 24.633410,76.903336 23.713993,76.451538   C22.727535,75.966797 21.752249,74.835907 21.477203,73.799820   C21.347069,73.309608 22.863348,71.763985 23.628614,71.767609   C26.164751,71.779602 28.698586,72.278564 31.233305,72.590706   C31.271935,73.133263 31.310562,73.675812 31.349192,74.218369   C30.177641,74.948616 29.006090,75.678864 27.454903,76.494446  z"
   id="path3" />&#10;</svg>
